<svg width="345" height="85" viewBox="0 0 345 85" fill="none" xmlns="http://www.w3.org/2000/svg">
<path d="M86.7556 83.8383V24.3576H103.27V83.8383H86.7556ZM95.0517 16.6902C92.5965 16.6902 90.4901 15.877 88.7327 14.2506C87.0011 12.5983 86.1353 10.6234 86.1353 8.32574C86.1353 6.05391 87.0011 4.10478 88.7327 2.47836C90.4901 0.826121 92.5965 0 95.0517 0C97.5069 0 99.6003 0.826121 101.332 2.47836C103.089 4.10478 103.968 6.05391 103.968 8.32574C103.968 10.6234 103.089 12.5983 101.332 14.2506C99.6003 15.877 97.5069 16.6902 95.0517 16.6902Z" fill="white"/>
<path d="M148.172 24.3576V36.7494H112.313V24.3576H148.172ZM120.454 10.1071H136.968V65.5604C136.968 67.0835 137.201 68.2711 137.666 69.123C138.131 69.9491 138.777 70.53 139.604 70.8656C140.457 71.2012 141.439 71.369 142.551 71.369C143.326 71.369 144.101 71.3045 144.877 71.1754C145.652 71.0205 146.246 70.9043 146.66 70.8269L149.257 83.1025C148.43 83.3607 147.267 83.6575 145.768 83.9932C144.269 84.3546 142.447 84.574 140.302 84.6515C136.322 84.8064 132.833 84.2771 129.835 83.0638C126.863 81.8504 124.55 79.9658 122.896 77.41C121.242 74.8542 120.428 71.6272 120.454 67.7289V10.1071Z" fill="white"/>
<path d="M175.444 49.451V83.8383H158.93V24.3576H174.669V34.8519H175.367C176.685 31.3926 178.894 28.656 181.996 26.6424C185.097 24.6029 188.857 23.5831 193.277 23.5831C197.412 23.5831 201.017 24.4867 204.093 26.2938C207.168 28.101 209.559 30.6826 211.265 34.0387C212.97 37.369 213.823 41.3447 213.823 45.9658V83.8383H197.309V48.9089C197.334 45.2688 196.404 42.429 194.517 40.3895C192.631 38.3242 190.033 37.2916 186.725 37.2916C184.503 37.2916 182.538 37.7692 180.833 38.7244C179.153 39.6796 177.835 41.0737 176.879 42.9066C175.948 44.7137 175.47 46.8952 175.444 49.451Z" fill="white"/>
<path d="M253.743 85C247.721 85 242.514 83.7221 238.12 81.1663C233.753 78.5847 230.38 74.9962 228.002 70.4009C225.624 65.7798 224.436 60.4229 224.436 54.3303C224.436 48.186 225.624 42.8162 228.002 38.221C230.38 33.5998 233.753 30.0114 238.12 27.4556C242.514 24.874 247.721 23.5831 253.743 23.5831C259.765 23.5831 264.96 24.874 269.327 27.4556C273.721 30.0114 277.107 33.5998 279.484 38.221C281.862 42.8162 283.051 48.186 283.051 54.3303C283.051 60.4229 281.862 65.7798 279.484 70.4009C277.107 74.9962 273.721 78.5847 269.327 81.1663C264.96 83.7221 259.765 85 253.743 85ZM253.821 72.221C256.56 72.221 258.847 71.4465 260.682 69.8975C262.517 68.3227 263.9 66.18 264.83 63.4692C265.787 60.7585 266.265 57.6735 266.265 54.2141C266.265 50.7547 265.787 47.6697 264.83 44.959C263.9 42.2483 262.517 40.1055 260.682 38.5308C258.847 36.956 256.56 36.1686 253.821 36.1686C251.055 36.1686 248.729 36.956 246.843 38.5308C244.982 40.1055 243.573 42.2483 242.617 44.959C241.687 47.6697 241.222 50.7547 241.222 54.2141C241.222 57.6735 241.687 60.7585 242.617 63.4692C243.573 66.18 244.982 68.3227 246.843 69.8975C248.729 71.4465 251.055 72.221 253.821 72.221Z" fill="white"/>
<path d="M305.458 24.3576L316.39 45.1526L327.594 24.3576H344.535L327.284 54.0979L345 83.8383H328.136L316.39 63.2756L304.838 83.8383H287.78L305.458 54.0979L288.401 24.3576H305.458Z" fill="white"/>
<path fill-rule="evenodd" clip-rule="evenodd" d="M44.2752 5.32383C50.1795 5.32384 55.1213 6.15486 59.1003 7.81612C63.1049 9.47737 66.1085 11.803 68.1108 14.7933C70.1388 17.7835 71.1531 21.2471 71.1531 25.1831C71.1531 28.1732 70.5239 30.8443 69.2661 33.1955C68.0082 35.5212 66.2754 37.4511 64.0678 38.9845C61.8601 40.5179 59.3051 41.5908 56.4043 42.2042V42.9707C59.5875 43.124 62.5276 43.9809 65.2231 45.5399C67.9441 47.0989 70.1265 49.2717 71.7694 52.0574C73.4122 54.8175 74.2336 58.0892 74.2336 61.8716C74.2335 66.0885 73.1548 69.8582 70.9985 73.1807C68.8422 76.4775 65.7234 79.0844 61.6418 81.0012C57.5602 82.8925 52.6057 83.8382 46.7785 83.8383H11.3899V69.8039H5.96393C4.46676 69.8039 3.25305 68.5955 3.25305 67.1049C3.25305 65.6144 4.46675 64.406 5.96393 64.406H11.3899V62.2469H5.96393C4.46676 62.2469 3.25305 61.0385 3.25305 59.548C3.25305 58.0574 4.46675 56.849 5.96393 56.849H11.3899V54.6899H2.71088C1.2137 54.6899 0 53.4815 0 51.991C0 50.5004 1.2137 49.292 2.71088 49.292H11.3899V47.1329H5.96393C4.46676 47.1329 3.25305 45.9246 3.25305 44.434C3.25305 42.9434 4.46675 41.7351 5.96393 41.7351H11.3899V39.5759H2.71088C1.2137 39.5759 0 38.3676 0 36.877C0 35.3864 1.2137 34.1781 2.71088 34.1781H11.3899V32.0189H5.96393C4.46676 32.0189 3.25305 30.8106 3.25305 29.32C3.25305 27.8294 4.46675 26.6211 5.96393 26.6211H11.3899V24.4619H2.71088C1.2137 24.4619 0 23.2536 0 21.763C0 20.2724 1.2137 19.0641 2.71088 19.0641H11.3899V5.32383H44.2752ZM30.4508 68.5419H42.2346C46.3675 68.5419 49.4096 67.7625 51.3605 66.2035C53.3372 64.6445 54.3255 62.4718 54.3256 59.6861C54.3256 57.667 53.8501 55.9285 52.9002 54.4717C51.9504 52.9895 50.6027 51.8523 48.8572 51.0601C47.1116 50.2423 45.0195 49.8329 42.5809 49.8329H30.4508V68.5419ZM30.4508 37.6034H41.002C43.0812 37.6034 44.9294 37.2591 46.5466 36.5691C48.1639 35.8791 49.4222 34.8817 50.3207 33.5782C51.2447 32.2749 51.7067 30.7034 51.7068 28.8635C51.7068 26.2313 50.7701 24.1607 48.8964 22.6528C47.0224 21.1449 44.4934 20.3904 41.3102 20.3904H30.4508V37.6034Z" fill="white"/>
</svg>
